    <svg id="circle" width="760" height="680" viewBox="0 0 760 680" fill="none" xmlns="http://www.w3.org/2000/svg">
      <path d="M452.209 34.4086C423.754 28.0591 395.516 26.2946 366.543 30.5304C337.2 34.8204 308.699 44.8314 280.935 54.9568C240.219 69.8057 201.148 88.4829 166.762 115.183C128.468 144.918 92.9461 182.018 69.1433 224.523C42.9912 271.223 28.0341 322.486 25.5579 375.972C23.5633 419.056 26.4214 466.362 42.2859 506.931C60.0127 552.263 90.3079 590.835 132.814 615.084C176.1 639.779 226.751 650.523 276.073 653.229C328.326 656.096 379.713 652.599 430.966 642.116C483.717 631.326 536.256 614.288 583.023 587.185C630.872 559.455 670.244 519.702 699.772 473.07C759.401 378.9 739.191 249.531 663.422 170.027C635.265 140.483 601.151 115.337 566.99 93.217C540.6 76.1293 512.218 61.9396 482.829 50.7893C452.116 39.1369 419.967 30.6806 387.265 27.1443C338.17 21.8354 290.068 27.5377 241.228 31.8039" stroke="black" stroke-width="50" stroke-linecap="round"/>
    </svg>